#!OML:ASF H:\Terrain\Patient Classification 1\Takeo\Monday\TakeoMonday.ASF
:FULLY-SPECIFIED
:DEGREES
1507
root 11.1295 15.5861 -1.27043 -5.02966 -49.8235 10.0099
lowerback 27.8579 -3.28446 4.20718
upperback 12.3509 -3.78932 -0.361241
thorax -1.79303 -1.95553 -1.7093
lowerneck -13.7818 11.5917 4.27463
upperneck -7.0707 14.7231 -16.3913
head 1.71704 6.99863 -4.66556
rclavicle 1.11319e-014 -1.35174e-014
rhumerus -43.4423 20.7043 -87.3622
rradius 101.587
rwrist 13.4147
rhand -39.5089 52.5483
rfingers 7.12502
rthumb -12.4943 22.9418
lclavicle 1.11319e-014 -1.35174e-014
lhumerus -19.3866 -9.61245 93.5076
lradius 104.476
lwrist 18.5636
lhand -30.3366 0.469738
lfingers 7.12502
lthumb -3.64253 30.4184
rfemur -37.0157 -5.78817 12.1366
rtibia 71.0582
rfoot -31.2657 -18.4113
rtoes -12.6458
lfemur -43.7269 23.8639 -27.2126
ltibia 66.8421
lfoot -22.1653 15.2502
ltoes 5.4184
1508
root 11.13 15.5834 -1.27488 -5.20673 -49.054 10.4154
lowerback 27.997 -3.24143 3.86094
upperback 12.2277 -3.78788 -0.268797
thorax -1.97475 -1.9671 -1.40167
lowerneck -13.8658 11.3463 4.01671
upperneck -6.75218 14.4629 -16.1365
head 1.75712 6.86203 -4.56534
rclavicle 1.03368e-013 -5.725e-014
rhumerus -42.6981 20.9258 -86.9863
rradius 101.51
rwrist 13.3074
rhand -39.6257 51.6817
rfingers 7.12502
rthumb -12.6069 22.0821
lclavicle 1.03368e-013 -5.725e-014
lhumerus -19.7641 -9.98706 93.9336
lradius 104.587
lwrist 18.7621
lhand -30.641 0.269188
lfingers 7.12502
lthumb -3.93647 30.2126
rfemur -37.0143 -6.31277 11.7011
rtibia 71.09
rfoot -31.4238 -18.2845
rtoes -11.9084
lfemur -43.8691 23.3271 -27.6978
ltibia 66.6881
lfoot -22.0599 15.141
ltoes 4.80024
1509
root 11.135 15.5752 -1.28227 -4.57076 -48.1358 10.0136
lowerback 27.9796 -3.36203 4.13906
upperback 12.0518 -3.83563 -0.0747301
thorax -2.16651 -1.98182 -1.32816
lowerneck -13.834 11.0185 3.51172
upperneck -6.6825 14.091 -15.7743
head 1.66885 6.6928 -4.42133
rclavicle 1.03368e-014 -7.95139e-015
rhumerus -41.9395 21.1162 -86.6446
rradius 101.407
rwrist 13.3174
rhand -39.7888 50.6157
rfingers 7.12502
rthumb -12.7642 21.0259
lclavicle 1.03368e-014 -7.95139e-015
lhumerus -20.0357 -10.2776 94.3011
lradius 104.636
lwrist 18.9165
lhand -30.6347 0.308208
lfingers 7.12502
lthumb -3.93043 30.2517
rfemur -37.1823 -6.76688 11.8545
rtibia 71.1077
rfoot -31.7305 -18.1164
rtoes -10.3363
lfemur -44.3653 22.6126 -27.7341
ltibia 66.6101
lfoot -21.7471 15.0107
ltoes 4.56476
1510
root 11.1286 15.5882 -1.27016 -4.01017 -47.7475 9.43051
lowerback 27.9931 -3.30711 4.34335
upperback 12.0189 -3.69842 0.110435
thorax -2.19846 -1.91129 -1.281
lowerneck -14.0261 10.8196 3.51058
upperneck -6.42493 13.8533 -15.8387
head 1.76043 6.55252 -4.44508
rclavicle 9.06458e-014 -1.04958e-013
rhumerus -40.9457 21.183 -86.2567
rradius 101.224
rwrist 13.4056
rhand -39.5309 50.4173
rfingers 7.12502
rthumb -12.5155 20.8121
lclavicle 9.06458e-014 -1.04958e-013
lhumerus -20.0491 -10.3475 94.5484
lradius 104.545
lwrist 19.0495
lhand -30.317 0.256825
lfingers 7.12502
lthumb -3.62362 30.2058
rfemur -37.0222 -6.7523 12.1808
rtibia 70.9611
rfoot -31.8862 -18.3577
rtoes -10.1265
lfemur -44.4608 22.5003 -27.5116
ltibia 66.5018
lfoot -21.6274 14.8557
ltoes 3.98585
1511
root 11.1168 15.6062 -1.26354 -3.78824 -47.253 9.30754
lowerback 27.9014 -3.08978 4.12764
upperback 12.0275 -3.46401 0.334837
thorax -2.11171 -1.80639 -0.987785
lowerneck -14.638 10.5966 3.54579
upperneck -5.69009 13.6376 -15.8731
head 2.06069 6.38151 -4.43225
rclavicle 7.87187e-014 0
rhumerus -40 21.418 -85.5695
rradius 101.224
rwrist 13.2058
rhand -39.2018 50.2275
rfingers 7.12502
rthumb -12.1982 20.6032
lclavicle 7.87187e-014 0
lhumerus -20.0889 -10.5833 95.1404
lradius 104.549
lwrist 19.2938
lhand -29.869 0.250068
lfingers 7.12502
lthumb -3.19094 30.2059
rfemur -36.833 -6.97548 12.2184
rtibia 70.7526
rfoot -31.8114 -18.8719
rtoes -10.7664
lfemur -44.4827 22.3372 -27.6141
ltibia 66.3137
lfoot -21.4402 14.7108
ltoes 3.21134
1512
root 11.1131 15.6258 -1.25269 -3.48903 -46.6198 9.0491
lowerback 27.8116 -2.95896 4.17593
upperback 12.0807 -3.27631 0.57383
thorax -1.9889 -1.71549 -0.815494
lowerneck -15.2995 10.3064 3.24084
upperneck -5.04882 13.3649 -15.6575
head 2.28999 6.19554 -4.30528
rclavicle 4.77083e-014 -3.65764e-014
rhumerus -38.9044 21.8157 -84.6884
rradius 101.191
rwrist 12.9183
rhand -39.0892 49.9155
rfingers 7.12502
rthumb -12.0896 20.2847
lclavicle 4.77083e-014 -3.65764e-014
lhumerus -20.3334 -10.9574 95.9683
lradius 104.742
lwrist 19.5672
lhand -29.8883 0.180808
lfingers 7.12502
lthumb -3.2096 30.1364
rfemur -36.5786 -7.39923 12.3254
rtibia 70.4988
rfoot -31.7459 -19.2214
rtoes -10.6872
lfemur -44.3854 21.9305 -27.591
ltibia 66.0435
lfoot -21.5729 14.5028
ltoes 3.39868
